HIERARCHY
ROOT Hips
{
	OFFSET 0.000000 0.000000 0.000000
	CHANNELS 6 Xposition Yposition Zposition Zrotation Yrotation Xrotation 
	JOINT LHipJoint
	{
		OFFSET 0.000000 0.000000 0.000000
		CHANNELS 3 Zrotation Yrotation Xrotation
		JOINT LeftUpLeg
		{
			OFFSET 1.363060 -1.794630 0.839290
			CHANNELS 3 Zrotation Yrotation Xrotation
			JOINT LeftLeg
			{
				OFFSET 2.448110 -6.726130 0.000000
				CHANNELS 3 Zrotation Yrotation Xrotation
				JOINT LeftFoot
				{
					OFFSET 2.562200 -7.039590 0.000000
					CHANNELS 3 Zrotation Yrotation Xrotation
					JOINT LeftToeBase
					{
						OFFSET 0.157640 -0.433110 2.322550
						CHANNELS 3 Zrotation Yrotation Xrotation
						End Site
						{
							OFFSET 0.000000 0.000000 0.000000
						}
					}
				}
			}
		}
	}
	JOINT RHipJoint
	{
		OFFSET 0.000000 0.000000 0.000000
		CHANNELS 3 Zrotation Yrotation Xrotation
		JOINT RightUpLeg
		{
			OFFSET -1.305520 -1.794630 0.839290
			CHANNELS 3 Zrotation Yrotation Xrotation
			JOINT RightLeg
			{
				OFFSET -2.542530 -6.985550 0.000000
				CHANNELS 3 Zrotation Yrotation Xrotation
				JOINT RightFoot
				{
					OFFSET -2.568260 -7.056230 0.000000
					CHANNELS 3 Zrotation Yrotation Xrotation
					JOINT RightToeBase
					{
						OFFSET -0.164730 -0.452590 2.363150
						CHANNELS 3 Zrotation Yrotation Xrotation
						End Site
						{
							OFFSET 0.000000 0.000000 0.000000
						}
					}
				}
			}
		}
	}
}
MOTION
Frames: 33
Frame Time: 0.008333
1.837318 17.643628 2.647602 -28.591688 -23.484420 30.118791 -18.142593 -2.392985 4.509929 22.109354 -17.303603 -17.320723 2.494609 0.702817 14.217317 1.556946 7.663635 -7.582958 0.131500 0.000001 -33.810200 3.196584 3.705992 3.915226 -31.913545 -20.937044 -49.412884 0.823322 0.490680 -1.455385 -0.328322 -12.635483 13.181508 -6.594601 0.000000 -53.145500
1.830968 17.636048 2.667180 -29.071417 -23.867238 30.671824 -18.168771 -2.389516 4.639208 22.508852 -17.100729 -17.720855 2.561818 0.680428 14.564223 1.627457 8.017083 -7.798293 0.117000 0.000000 -33.420400 3.189748 3.650620 3.901986 -30.100083 -20.899565 -50.070160 1.009823 0.560240 -1.595526 -0.324004 -13.060437 13.201876 -6.836900 0.000000 -55.191900
1.824292 17.626355 2.684703 -29.636288 -24.382107 31.262114 -18.212106 -2.397105 4.747686 22.884413 -16.595923 -18.139486 2.619063 0.658127 14.950007 1.671463 8.196944 -8.029965 0.094500 -0.000000 -33.152600 3.168773 3.568183 3.794152 -28.073932 -20.723379 -50.201780 1.188519 0.659685 -2.693682 -0.563558 -13.490565 14.870033 -7.126101 0.000000 -58.157000
1.815669 17.615237 2.698390 -30.229122 -24.966494 31.787895 -18.249696 -2.403382 4.829538 23.171717 -15.861506 -18.481249 2.654326 0.634557 15.322471 1.683946 8.188614 -8.271175 0.064900 0.000000 -33.016700 3.139427 3.481333 3.562385 -25.804167 -20.606349 -49.777505 1.394565 0.773809 -4.688960 -1.032894 -13.472726 18.134254 -7.215800 -0.000000 -61.627200
1.803398 17.603303 2.706759 -30.794477 -25.564463 32.178207 -18.264348 -2.399944 4.878424 23.331714 -14.963631 -18.693820 2.658738 0.610124 15.644800 1.660738 7.978588 -8.515941 0.029500 0.000000 -33.025300 3.117175 3.397570 3.214987 -23.435340 -20.592188 -48.793025 1.625428 0.880820 -7.342763 -1.623652 -12.804361 22.714901 -6.987900 -0.000000 -65.002700
1.786995 17.591317 2.708693 -31.261614 -26.132058 32.470405 -18.256144 -2.423639 4.840581 23.357295 -13.970787 -18.782219 2.629803 0.586604 15.885586 1.601218 7.571224 -8.751869 -0.007700 -0.000000 -33.182500 3.142866 3.357459 2.974900 -21.589724 -20.491409 -49.446499 1.868721 0.746487 -5.927259 -1.721916 -11.629452 25.501307 -6.541300 -0.000000 -67.748100
1.767336 17.579786 2.704927 -31.645460 -26.652255 32.651289 -18.231576 -2.454462 4.746004 23.289571 -12.904430 -18.765625 2.572989 0.568559 16.040667 1.509262 6.984120 -8.963520 -0.041300 0.000000 -33.490100 3.207930 3.318707 2.776093 -20.354452 -20.100373 -50.424739 2.042059 0.496881 -2.840404 -1.635647 -10.355807 27.645515 -6.033100 -0.000000 -69.564700
1.745401 17.569403 2.696505 -31.955856 -27.119816 32.735528 -18.193401 -2.479699 4.621185 23.161282 -11.786918 -18.685152 2.495596 0.556687 16.112411 1.392315 6.255347 -9.131505 -0.065900 0.000000 -33.966300 3.302744 3.257159 2.584713 -19.674497 -19.349963 -50.787180 2.108228 0.257424 -0.032504 -1.583014 -9.136853 30.022732 -5.500800 -0.000000 -70.414800
1.723068 17.560647 2.685142 -32.192159 -27.516795 32.759081 -18.148320 -2.498428 4.484561 23.007953 -10.689298 -18.589085 2.407963 0.550633 16.111742 1.262773 5.453121 -9.244583 -0.079300 0.000000 -34.537999 3.417232 3.171423 2.421529 -19.452875 -18.271941 -50.609225 2.084616 0.055695 2.405911 -1.560337 -7.967497 32.380981 -4.918900 -0.000000 -70.496401
1.701245 17.554084 2.672060 -32.342305 -27.826709 32.734137 -18.094561 -2.505554 4.354128 22.839958 -9.689235 -18.504635 2.317730 0.548287 16.049830 1.132626 4.646824 -9.296813 -0.082200 0.000000 -35.189000 3.545775 3.065236 2.289990 -19.511727 -16.990415 -50.074272 2.007739 -0.105929 4.541121 -1.551468 -6.772844 34.472501 -4.232600 0.000001 -70.140800
1.680624 17.549847 2.659384 -32.399560 -28.024592 32.682506 -18.035852 -2.494083 4.258963 22.682361 -8.879676 -18.477163 2.234801 0.547388 15.951862 1.014734 3.911311 -9.300172 -0.077999 0.000000 -35.770300 3.680508 2.940343 2.186587 -19.667677 -15.652965 -49.356693 1.913289 -0.233660 6.451018 -1.544585 -5.572240 36.119358 -3.465000 0.000000 -69.571400
1.660863 17.548417 2.646861 -32.349969 -28.108267 32.579198 -17.962021 -2.458138 4.202692 22.510424 -8.315791 -18.481557 2.161405 0.545948 15.821430 0.916025 3.294851 -9.251323 -0.069600 -0.000000 -36.315000 3.825094 2.805762 2.096075 -19.797964 -14.395102 -48.567983 1.822103 -0.341585 8.230740 -1.532818 -4.406491 37.236643 -2.664100 0.000000 -69.182300
1.641870 17.549572 2.635995 -32.199416 -28.068973 32.439935 -17.877328 -2.394378 4.202736 22.344210 -8.045067 -18.538105 2.103724 0.542524 15.680550 0.843281 2.840776 -9.170356 -0.060500 -0.000001 -36.693100 3.975404 2.664172 2.010060 -19.803171 -13.318363 -47.779296 1.748632 -0.436259 9.910371 -1.517425 -3.417379 37.828986 -1.955301 -0.000000 -69.077400
1.622831 17.553174 2.626749 -31.952813 -27.919350 32.258046 -17.777344 -2.302187 4.257435 22.174080 -8.073218 -18.627452 2.061696 0.535994 15.535521 0.798084 2.564377 -9.064689 -0.052400 0.000000 -36.902400 4.134010 2.521775 1.918851 -19.639555 -12.489341 -47.021832 1.697155 -0.524654 11.517175 -1.501564 -2.708655 37.947465 -1.432400 0.000000 -69.351400
1.603145 17.558770 2.619365 -31.629574 -27.681403 32.041330 -17.663223 -2.184966 4.361652 22.003566 -8.370547 -18.736714 2.034219 0.526132 15.392887 0.778964 2.458990 -8.944934 -0.045600 -0.000000 -36.937899 4.300323 2.380817 1.817539 -19.292462 -11.923271 -46.301951 1.667249 -0.608944 13.042000 -1.490378 -2.368544 37.677516 -1.169000 -0.000001 -69.949600
1.581295 17.566270 2.613223 -31.233534 -27.391486 31.790754 -17.525096 -2.045302 4.503544 21.806026 -8.897756 -18.845039 2.016000 0.511067 15.245721 0.784075 2.515745 -8.816349 -0.040000 0.000000 -36.796800 4.481102 2.246043 1.710079 -18.800121 -11.608358 -45.620036 1.652748 -0.690651 14.466882 -1.488355 -2.411517 37.117332 -1.175100 -0.000000 -70.801701
1.557518 17.574720 2.608919 -30.808333 -27.087576 31.534625 -17.375238 -1.893413 4.670501 21.602944 -9.561938 -18.946481 2.004630 0.492366 15.097666 0.806377 2.687170 -8.688852 -0.034700 -0.000000 -36.511200 4.668333 2.112567 1.598290 -18.175272 -11.473425 -44.962258 1.650422 -0.765731 15.743214 -1.498593 -2.834628 36.363363 -1.442400 -0.000000 -71.687000
1.531684 17.583587 2.606437 -30.382556 -26.813311 31.292668 -17.218485 -1.737814 4.846369 21.391592 -10.271307 -19.030024 1.995800 0.470295 14.941209 0.839080 2.927997 -8.565788 -0.029000 0.000000 -36.135401 4.858948 1.977594 1.489704 -17.455375 -11.437219 -44.320846 1.655077 -0.830935 16.833355 -1.520916 -3.561714 35.501757 -1.909500 0.000000 -72.415900
1.502652 17.592816 2.605214 -29.956931 -26.613593 31.076294 -17.046389 -1.582052 5.017956 21.137979 -10.967966 -19.085903 1.983979 0.442265 14.756657 0.879428 3.220196 -8.450167 -0.022700 -0.000000 -35.641201 5.058499 1.843662 1.399657 -16.707841 -11.430168 -43.705835 1.659742 -0.885536 17.723143 -1.552104 -4.458673 34.609531 -2.479000 0.000000 -72.903700
1.471602 17.601590 2.605738 -29.573345 -26.520828 30.912300 -16.877193 -1.436491 5.171307 20.864202 -11.544918 -19.114158 1.968119 0.410541 14.542588 0.918107 3.500434 -8.343592 -0.015600 0.000000 -35.134400 5.255355 1.702851 1.332408 -15.934471 -11.355448 -43.114340 1.663653 -0.925970 18.396005 -1.585561 -5.408065 33.747717 -3.072600 -0.000001 -72.992600
1.438485 17.609746 2.607696 -29.238608 -26.561546 30.810289 -16.711214 -1.304215 5.297411 20.555371 -11.951974 -19.112805 1.945783 0.374207 14.286784 0.951597 3.745397 -8.246462 -0.008100 0.000000 -34.637200 5.449296 1.555069 1.297399 -15.165926 -11.155294 -42.561909 1.664116 -0.953230 18.868674 -1.613153 -6.271511 32.970180 -3.603800 -0.000000 -72.704100
1.403946 17.616944 2.610977 -28.968127 -26.748778 30.780025 -16.556272 -1.188777 5.389563 20.216221 -12.141417 -19.083930 1.916443 0.334230 13.986599 0.975355 3.924895 -8.157636 -0.000800 0.000000 -34.201500 5.634934 1.397507 1.297614 -14.403516 -10.782212 -42.058145 1.661223 -0.968619 19.165633 -1.626513 -6.945339 32.320483 -4.014201 0.000000 -72.105200
1.367018 17.623615 2.614839 -28.737717 -27.085403 30.813314 -16.401188 -1.086228 5.448481 19.817661 -12.129030 -19.029958 1.877578 0.288248 13.631699 0.991174 4.052036 -8.075590 0.006300 0.000000 -33.776600 5.818864 1.235933 1.339003 -13.677252 -10.241541 -41.628109 1.654020 -0.978060 19.337516 -1.618079 -7.330974 31.824350 -4.249300 -0.000000 -71.353200
1.329145 17.629293 2.619296 -28.568501 -27.559535 30.913265 -16.259308 -0.999283 5.472853 19.388257 -11.895006 -18.957909 1.830982 0.239653 13.236817 0.995411 4.102070 -7.998912 0.012601 0.000000 -33.445600 5.990994 1.066428 1.413884 -12.954912 -9.523473 -41.265661 1.646221 -0.983066 19.409645 -1.583663 -7.409775 31.498978 -4.304700 0.000001 -70.557899
1.290631 17.634012 2.623953 -28.455813 -28.151966 31.071071 -16.131616 -0.926141 5.465998 18.936137 -11.463058 -18.873930 1.777209 0.189956 12.814848 0.988805 4.079819 -7.927337 0.017900 -0.000000 -33.220500 6.148937 0.890634 1.515469 -12.222023 -8.655453 -40.967359 1.640896 -0.987031 19.412901 -1.521955 -7.181029 31.344043 -4.182900 0.000000 -69.840100
1.250332 17.638316 2.627913 -28.360391 -28.838875 31.261842 -16.001078 -0.858700 5.438102 18.434248 -10.909338 -18.785496 1.714743 0.137085 12.370444 0.977546 4.027623 -7.858965 0.022401 0.000000 -33.024600 6.302613 0.717684 1.640722 -11.497449 -7.709404 -40.741603 1.639212 -0.995889 19.390590 -1.433750 -6.641963 31.335695 -3.879300 -0.000000 -69.301900
1.210004 17.641672 2.631323 -28.304205 -29.589959 31.483870 -15.883410 -0.799938 5.392266 17.929805 -10.247313 -18.702101 1.647667 0.086371 11.939713 0.960502 3.934862 -7.801757 0.025500 0.000001 -32.909600 6.439516 0.543289 1.773572 -10.728060 -6.708339 -40.552931 1.646661 -1.007639 19.334981 -1.324776 -5.880929 31.451424 -3.445900 0.000000 -68.960200
1.168390 17.644629 2.633309 -28.243394 -30.379540 31.709125 -15.760823 -0.741635 5.339938 17.396369 -9.562992 -18.629281 1.575240 0.035763 11.531095 0.944867 3.850233 -7.755721 0.027501 0.000000 -32.804399 6.570832 0.375963 1.909525 -9.932185 -5.731252 -40.397621 1.663449 -1.025467 19.268561 -1.200581 -4.941029 31.645401 -2.902600 0.000000 -68.858901
1.125632 17.647204 2.633452 -28.162812 -31.183828 31.920515 -15.629402 -0.680828 5.288695 16.835976 -8.911958 -18.571443 1.499318 -0.013999 11.163066 0.934868 3.800778 -7.726513 0.028500 -0.000000 -32.678200 6.698527 0.217957 2.040314 -9.103533 -4.826524 -40.254793 1.690636 -1.048512 19.188849 -1.068514 -3.904710 31.871344 -2.296100 0.000000 -69.011401
1.082359 17.649109 2.631752 -28.063377 -31.982930 32.111947 -15.493916 -0.618243 5.242895 16.269627 -8.323046 -18.533975 1.422896 -0.060547 10.859622 0.932112 3.794341 -7.725090 0.027700 -0.000000 -32.518600 6.818673 0.067403 2.156725 -8.222370 -4.017418 -40.095818 1.730043 -1.073863 19.082008 -0.935449 -2.871049 32.075413 -1.686400 0.000000 -69.379000
1.038513 17.650364 2.627936 -27.929265 -32.765618 32.269188 -15.349069 -0.551612 5.206808 15.689582 -7.833153 -18.515435 1.346851 -0.104213 10.627269 0.939621 3.850581 -7.754546 0.024999 0.000000 -32.304400 6.934950 -0.074497 2.255365 -7.298784 -3.330509 -39.905830 1.780879 -1.100247 18.946192 -0.806044 -1.907126 32.200311 -1.116200 -0.000000 -69.950801
0.994565 17.650750 2.622059 -27.762011 -33.524978 32.389984 -15.197525 -0.482208 5.181291 15.104640 -7.449047 -18.517021 1.272631 -0.144055 10.474699 0.957605 3.968777 -7.821274 0.019800 -0.000000 -32.031100 7.045391 -0.209741 2.333146 -6.332596 -2.766748 -39.669374 1.843450 -1.125353 18.776655 -0.682735 -1.073442 32.185730 -0.626900 -0.000000 -70.660800
0.949471 17.650769 2.613531 -27.526203 -34.264417 32.455755 -15.024710 -0.404936 5.170152 14.480884 -7.213362 -18.525688 1.199171 -0.183525 10.380432 0.991299 4.184776 -7.920935 0.012300 0.000000 -31.614200 7.160595 -0.334439 2.394865 -5.370136 -2.337283 -39.394585 1.913350 -1.149825 18.590604 -0.565851 -0.373286 31.981181 -0.224200 0.000000 -71.503300
